# xmcd CD database file
#
# Track frame offsets:
#	150
#	21445
#	44177
#	116210
#	186337
#	207857
#
# Disc length: 2903 seconds
#
# Revision: 2
# Processed by: cddbd v1.4PL0 Copyright (c) Steve Scherf et al.
# Submitted via: CDex 1.50beta10
#
DISCID=5d0b5506
DTITLE=Michel Petrucciani - Lee Konitz - Toot Sweet
DYEAR=1982
DGENRE=Jazz
TTITLE0=I Hear A Rhapsody
TTITLE1=To Erlinda
TTITLE2=Round About Midnight
TTITLE3=Lover Man
TTITLE4=Ode
TTITLE5=Lovelee
EXTD=YEAR: 1982
EXTT0=
EXTT1=
EXTT2=
EXTT3=
EXTT4=
EXTT5=
PLAYORDER=
